<svg xmlns="http://www.w3.org/2000/svg" width="512" height="512" viewBox="0 0 512 512" version="1.1">
	<path d="M 234.315 17.750 C 234.616 18.712, 236.893 25.350, 239.375 32.500 C 241.856 39.650, 244.203 47.735, 244.589 50.466 L 245.292 55.432 239.061 49.793 C 229.474 41.118, 214.591 34.712, 197.885 32.071 L 192.764 31.261 193.353 35.560 C 194.196 41.707, 200.552 60.736, 203.438 65.750 L 205.884 70 198.836 70 C 187.364 70, 174.860 74.049, 169.366 79.543 C 165.805 83.104, 166.377 83.980, 171.841 83.332 C 177.232 82.694, 181 84.107, 181 86.766 C 181 87.698, 180.128 90.720, 179.063 93.481 C 177.997 96.241, 176.860 99.358, 176.534 100.406 C 176.037 102.008, 175.643 101.723, 174.057 98.613 C 170.867 92.354, 167.152 88.177, 161.203 84.158 C 154.542 79.658, 149.493 77.607, 122.500 68.438 C 99.468 60.615, 93.241 59.801, 86.838 63.779 C 84.722 65.094, 82.718 67.371, 82.088 69.176 C 79.701 76.024, 81.491 105.854, 85.619 128 C 89.526 148.962, 96.542 162.432, 108.879 172.655 C 120.081 181.938, 134.921 189.125, 145.894 190.580 C 148.702 190.953, 151 191.368, 151 191.503 C 151 191.638, 149.797 193.901, 148.326 196.532 L 145.652 201.317 153.576 200.643 C 157.934 200.273, 162.512 199.699, 163.750 199.368 C 165.973 198.774, 166 198.885, 166 208.758 C 166 219.315, 167.310 224.818, 171.087 230.122 C 173.185 233.068, 173.191 233.207, 171.504 239.806 C 168.868 250.114, 168.442 265.774, 170.504 276.500 C 174.497 297.271, 173.502 308.628, 166 327.878 C 163.864 333.358, 161.601 340.688, 160.970 344.166 C 159.930 349.901, 160.230 356.945, 161.609 359.176 C 161.903 359.653, 164.249 358.190, 166.822 355.925 L 171.500 351.807 172.787 356.154 C 175.452 365.155, 175.018 366.909, 167.849 376.092 C 155.599 391.786, 151 401.658, 151 412.263 L 151 417.349 153.250 415.291 C 155.716 413.037, 161.966 409.633, 162.556 410.223 C 162.760 410.427, 159.547 414.847, 155.416 420.047 C 144.747 433.475, 139.397 441.754, 136.294 449.639 C 133.906 455.706, 133.588 457.888, 133.547 468.500 C 133.503 479.803, 133.666 480.820, 136.362 486 C 137.936 489.025, 140.321 492.962, 141.663 494.750 L 144.102 498 155.051 498 C 167.778 498, 168.060 497.701, 162.348 490.259 C 154.114 479.530, 152.525 469.248, 156.901 455.012 C 160.430 443.528, 165.692 434.289, 162.859 444.550 C 161.042 451.128, 162.260 462.639, 165.489 469.422 C 168.547 475.846, 180.088 488.692, 188.056 494.541 L 192.768 498 205.884 498 C 213.098 498, 219 497.637, 219 497.193 C 219 496.750, 215.221 492.187, 210.602 487.054 C 205.983 481.922, 200.571 474.972, 198.576 471.611 C 194.419 464.608, 190.307 452.464, 189.358 444.389 C 188.974 441.125, 188.389 439.370, 187.931 440.112 C 187.093 441.468, 185.232 454.088, 184.556 463 C 184.327 466.025, 184.108 468.837, 184.069 469.250 C 183.882 471.273, 182.035 469.490, 179.409 464.750 C 176.618 459.714, 176.503 458.991, 176.565 447 C 176.634 433.824, 176.383 434.993, 185.441 405.726 L 186.919 400.952 176.650 411.653 C 169.545 419.056, 165.977 422.104, 165.072 421.544 C 162.745 420.106, 164.178 405.437, 167.225 399.500 C 169.899 394.290, 177.498 385, 179.085 385 C 179.588 385, 180.003 386.913, 180.007 389.250 L 180.013 393.500 182.060 390.500 C 185.999 384.724, 190.874 374.274, 192.430 368.269 C 194.284 361.114, 194.484 345.937, 192.859 335.693 C 191.408 326.544, 190.453 325.495, 189.676 332.196 C 189.046 337.635, 183.452 350.047, 181.320 350.738 C 180.591 350.974, 179.883 349.401, 179.466 346.619 C 178.856 342.556, 180.276 333.339, 185.610 306.738 C 186.136 304.117, 186.476 304.413, 192.245 312.524 C 195.590 317.226, 202.072 325.137, 206.650 330.105 C 214.939 339.099, 214.989 339.186, 218.598 350.818 C 225.072 371.690, 231.200 382.650, 245.709 399.303 L 253.488 408.232 260.758 400.525 C 269.945 390.787, 276.225 382.010, 282.218 370.535 C 284.814 365.566, 286.951 361.811, 286.968 362.190 C 287.026 363.451, 281.796 377.335, 278.386 384.974 L 275.026 392.500 278.284 388.848 C 284.187 382.232, 290.730 368.232, 294.622 353.891 C 296.620 346.526, 298.844 339.341, 299.563 337.924 C 300.283 336.508, 304.032 331.868, 307.896 327.615 C 311.759 323.361, 317.160 316.455, 319.898 312.267 C 325.470 303.743, 324.959 303.437, 326.979 316.500 C 327.575 320.350, 329.009 327.828, 330.167 333.119 C 332.238 342.583, 332.153 349.169, 329.942 350.536 C 328.416 351.479, 323.062 339.011, 322.163 332.420 L 321.355 326.500 320.104 330.880 C 314.877 349.178, 316.198 365.842, 324.118 381.500 C 329.685 392.507, 330.540 393.246, 331.432 387.825 L 332.144 383.500 337.240 389 C 344.551 396.890, 347.493 403.703, 347.453 412.644 C 347.400 424.213, 346.466 424.293, 336.022 413.627 C 331.106 408.607, 326.353 403.600, 325.460 402.500 C 324.472 401.282, 324.015 401.088, 324.293 402.004 C 324.544 402.832, 326.157 407.906, 327.879 413.281 C 336.387 439.842, 335.469 459.113, 325.269 468.069 C 323.355 469.749, 321.638 470.971, 321.451 470.785 C 321.265 470.598, 321.556 468.472, 322.098 466.059 C 322.754 463.142, 322.736 457.956, 322.045 450.586 C 321.474 444.489, 321.005 439.163, 321.003 438.750 C 321.002 438.337, 320.601 438, 320.114 438 C 319.626 438, 318.912 440.104, 318.526 442.675 C 317.504 449.492, 312.857 461.989, 308.944 468.446 C 307.072 471.534, 301.804 478.380, 297.237 483.658 C 288.437 493.829, 286.684 496.351, 287.702 497.369 C 288.049 497.716, 295.388 498, 304.010 498 L 319.686 498 326.692 493.080 C 335.925 486.596, 344.212 477.222, 348.743 468.137 C 352.300 461.007, 352.413 460.442, 352.331 450.277 C 352.236 438.569, 352.750 438.572, 356.504 450.302 C 360.103 461.551, 359.980 471.441, 356.139 479.500 C 354.566 482.800, 351.436 487.937, 349.183 490.916 C 346.930 493.894, 345.319 496.707, 345.602 497.166 C 345.886 497.624, 351.039 498, 357.053 498 L 367.987 498 371.120 493.750 C 372.844 491.413, 375.434 487.025, 376.877 484 C 379.233 479.060, 379.494 477.381, 379.436 467.500 C 379.382 458.010, 379.002 455.551, 376.670 449.586 C 373.231 440.792, 364.996 428.400, 356.476 419.197 C 352.820 415.248, 349.991 411.528, 350.190 410.931 C 350.392 410.324, 352.842 411.422, 355.752 413.423 C 358.612 415.390, 361.230 417, 361.570 417 C 362.617 417, 360.973 406.836, 358.871 400.310 C 356.617 393.314, 351.921 385.645, 343.064 374.500 C 339.729 370.303, 337.016 366.561, 337.035 366.184 C 337.130 364.326, 339.841 352.826, 340.289 352.377 C 340.572 352.094, 343.097 353.510, 345.898 355.522 C 352.006 359.910, 352.410 359.447, 351.816 348.745 C 351.490 342.876, 350.416 339.050, 346.163 328.606 C 340.675 315.129, 338 304.920, 338 297.450 C 338 295.019, 339.201 289.086, 340.669 284.265 C 342.949 276.775, 343.347 273.609, 343.404 262.500 C 343.459 251.761, 343.065 248.075, 341.141 241.307 L 338.812 233.114 341.288 229.807 C 346.425 222.946, 347.255 220.150, 347.381 209.289 C 347.482 200.526, 347.724 199.084, 349 199.652 C 351.116 200.594, 365 201.362, 365 200.537 C 365 200.163, 363.832 197.864, 362.405 195.428 C 359.972 191.277, 359.931 191, 361.745 191 C 365.969 191, 379.508 186.857, 387.284 183.184 C 407.128 173.812, 419.834 158.698, 425.067 138.240 C 428.106 126.355, 430.982 104.831, 431.673 88.796 C 432.217 76.191, 432.058 73.441, 430.563 69.525 C 428.420 63.915, 424.568 61.601, 417.500 61.679 C 411.143 61.749, 371.361 74.697, 361.644 79.858 C 353.754 84.050, 343.249 94.507, 342.334 99.081 C 341.701 102.245, 340 103.097, 339.999 100.250 C 339.999 99.287, 338.649 95.647, 336.999 92.160 C 335.350 88.673, 334 85.680, 334 85.508 C 334 84.566, 340.963 83, 345.149 83 C 347.817 83, 350 82.553, 350 82.006 C 350 80.085, 341.601 74.957, 335.230 72.989 C 326.691 70.352, 315.248 70.351, 306.839 72.987 C 303.353 74.080, 299.836 74.980, 299.025 74.987 C 298.214 74.994, 300.752 71.738, 304.665 67.750 C 313.281 58.971, 316.216 54.377, 319.546 44.456 C 321.909 37.419, 324.281 17, 322.736 17 C 322.424 17, 318.452 22.063, 313.909 28.250 C 309.365 34.438, 301.114 45.151, 295.574 52.058 C 290.033 58.965, 284.492 65.940, 283.259 67.558 L 281.018 70.500 281.640 67.500 C 281.982 65.850, 284.046 59.775, 286.227 54 C 291.782 39.295, 296.649 25.100, 297.487 21.162 C 298.179 17.913, 298.135 17.856, 295.849 19.029 C 286.378 23.888, 272.835 37.050, 266.526 47.527 C 263.156 53.123, 262.001 53.521, 261.999 49.083 C 261.997 41.616, 250.586 25.888, 240.159 18.982 C 235.008 15.570, 233.535 15.260, 234.315 17.750 M 207.245 48.250 C 207.471 48.938, 211.221 50.660, 215.578 52.079 C 224.171 54.876, 230.650 58.485, 235.750 63.314 C 237.537 65.007, 239 65.959, 239 65.428 C 239 63.296, 233.732 56.912, 229.661 54.111 C 222.114 48.918, 206.085 44.727, 207.245 48.250 M 92 72.752 C 92 74.213, 105.694 82.212, 121.768 90.141 C 149.333 103.738, 153.733 110.573, 156.763 144.500 L 157.566 153.500 159.460 146 C 162.189 135.188, 162.744 114.072, 160.503 106.361 C 157.805 97.082, 152.987 93.005, 140 89.008 C 134.225 87.230, 121.537 82.677, 111.805 78.888 C 94.100 71.996, 92 71.346, 92 72.752 M 397.500 80.079 C 385.400 84.459, 373.475 88.779, 371 89.678 C 359.432 93.881, 353.621 105.679, 353.602 125 C 353.593 134.676, 356.468 152.866, 357.796 151.537 C 358.071 151.262, 358.922 146.192, 359.687 140.269 C 362.370 119.495, 366.165 109.703, 374.933 100.929 C 379.518 96.341, 383.417 93.923, 397.028 87.227 C 406.119 82.754, 415.344 77.518, 417.528 75.589 C 419.713 73.661, 421.050 72.090, 420.500 72.099 C 419.950 72.107, 409.600 75.698, 397.500 80.079 M 283.397 95.921 C 275.231 100.009, 264.550 108.735, 262.092 113.328 L 260.703 115.923 257.887 111.482 C 256.338 109.040, 252.017 104.799, 248.285 102.057 C 236.501 93.401, 237.925 93.363, 229.053 102.575 C 224.045 107.774, 220.215 112.874, 218.180 117.051 C 214.729 124.138, 212.450 136.026, 213.427 141.850 L 214.039 145.500 211.429 142.500 C 209.994 140.850, 207.172 136.125, 205.160 132 C 201.594 124.692, 201.500 124.205, 201.500 113 C 201.500 106.675, 201.900 99.475, 202.389 97 L 203.279 92.500 200.672 94.894 C 194.049 100.975, 193.119 117.247, 198.713 129.200 C 200.398 132.801, 203.417 137.562, 205.421 139.781 L 209.066 143.815 201.783 140.942 C 193.365 137.621, 184.725 137.088, 179.501 139.567 C 174.515 141.932, 163.652 153.761, 160.262 160.515 C 158.610 163.807, 156.512 169.088, 155.601 172.250 L 153.944 178 149.972 178 C 145.577 178, 144.620 179.616, 148.447 180.576 C 151.496 181.341, 156.630 179.716, 164.901 175.366 C 169.797 172.791, 172.529 172, 176.525 172 C 186.863 172, 195.847 177.097, 199.249 184.892 C 200.354 187.426, 201.384 189.646, 201.537 189.824 C 201.689 190.002, 203.318 189.361, 205.157 188.400 C 207.302 187.279, 212.243 186.381, 218.945 185.893 C 228.411 185.205, 230.179 184.743, 237.791 180.971 C 243.585 178.100, 248.056 174.944, 252.199 170.801 L 258.206 164.794 261.314 168.647 C 271.215 180.920, 278.917 184.829, 295.797 186.144 C 302.234 186.646, 308.384 187.156, 309.465 187.278 C 310.882 187.438, 312.150 186.185, 314.007 182.786 C 319.578 172.594, 327.013 168.026, 338.059 168.010 C 345.013 167.999, 346.529 168.708, 349.374 173.298 C 351.898 177.369, 356.803 180.018, 361.500 179.846 C 364.364 179.742, 364.740 179.584, 362.823 179.291 C 359.337 178.758, 358.704 177.850, 355.994 169.500 C 351.239 154.849, 345.615 146.980, 336.739 142.557 C 330.883 139.639, 325.275 139.289, 320.870 141.567 L 317.839 143.134 318.502 137.317 C 318.867 134.118, 319.803 126.414, 320.583 120.199 C 322.231 107.054, 322.362 102.658, 321.079 103.451 C 320.573 103.764, 319.836 108.573, 319.441 114.139 C 318.670 125.014, 317.859 125.254, 316.027 115.151 C 315.395 111.661, 314.425 107.618, 313.873 106.165 L 312.868 103.523 310.900 106.012 C 308.111 109.538, 304.867 115.843, 303.514 120.367 L 302.358 124.233 299.693 111.955 C 297.120 100.098, 294.467 92.989, 292.353 92.284 C 291.795 92.098, 287.765 93.735, 283.397 95.921 M 105.550 112.091 C 106.494 125.829, 109.611 140.286, 113.134 147.266 C 119.137 159.158, 130.667 167.076, 141.788 166.944 L 146.500 166.888 142.461 165.194 C 133.774 161.551, 128.567 156.747, 124.126 148.279 C 123.041 146.211, 123.288 146.260, 127.730 148.997 C 130.354 150.613, 134.525 152.207, 137 152.538 L 141.500 153.141 135.500 149.778 C 126.253 144.596, 121 141.068, 121 140.038 C 121 139.523, 122.573 139.759, 124.495 140.563 C 128.728 142.331, 139.209 145.124, 139.715 144.619 C 139.915 144.419, 135.625 141.734, 130.182 138.652 C 121.606 133.796, 116.410 130, 118.341 130 C 118.663 130, 121.080 130.838, 123.713 131.863 C 126.346 132.887, 130.750 133.967, 133.500 134.261 L 138.500 134.796 131.500 131.270 C 124.089 127.536, 117 122.461, 117 120.890 C 117 120.372, 118.463 120.713, 120.250 121.648 C 123.190 123.185, 134 126.235, 134 125.527 C 134 125.366, 131.501 124.012, 128.447 122.518 C 125.182 120.921, 119.187 116.273, 113.899 111.241 L 104.904 102.681 105.550 112.091 M 397.507 114.180 L 386.515 125.274 393.007 122.019 L 399.500 118.763 397 121.563 C 392.797 126.269, 389.690 128.927, 385.250 131.616 C 382.913 133.032, 381 134.381, 381 134.614 C 381 135.371, 386.370 133.760, 391.874 131.351 C 394.830 130.058, 397.473 129, 397.747 129 C 399.098 129, 394.939 132.577, 387.652 137.683 C 379.472 143.415, 378.607 145.483, 385.657 142.453 C 391.038 140.141, 395.007 139.018, 394.963 139.820 C 394.942 140.194, 391.117 143.181, 386.463 146.458 C 381.808 149.735, 378 152.556, 378 152.727 C 378 153.680, 384.156 151.406, 388.256 148.938 L 393.013 146.075 391.422 149.152 C 387.457 156.819, 376.979 165, 371.125 165 C 369.720 165, 369.141 165.420, 369.576 166.123 C 370.684 167.915, 379.266 166.421, 385.558 163.340 C 395.229 158.605, 402.633 148.069, 406.527 133.500 C 407.947 128.186, 409.911 102.933, 408.895 103.043 C 408.678 103.066, 403.553 108.078, 397.507 114.180 M 252.661 185.533 C 246.459 190.269, 239.847 193.491, 232 195.602 C 224.600 197.593, 223 198.543, 223 200.941 C 223 205.409, 219.682 213.080, 215.881 217.397 C 213.611 219.977, 211.609 221.942, 211.432 221.765 C 211.255 221.589, 211.507 219.684, 211.993 217.533 C 212.478 215.382, 212.582 212.245, 212.224 210.561 C 211.633 207.783, 211.510 207.984, 210.898 212.729 C 209.557 223.127, 202.868 232.071, 194.596 234.527 C 191.868 235.337, 188.666 236, 187.479 236 C 185.502 236, 185.223 236.794, 184.160 245.442 C 181.010 271.073, 185.011 285.775, 197.545 294.625 C 202.873 298.386, 203.404 299.099, 203.591 302.726 C 203.703 304.913, 204.515 308.095, 205.394 309.796 C 210.799 320.246, 227.400 334.066, 241.702 340.020 C 248.649 342.912, 250.173 343.187, 256.960 342.779 C 262.912 342.420, 265.869 341.634, 271 339.044 C 290.263 329.323, 309.036 309.245, 307.430 300.080 C 307.036 297.831, 307.732 297.034, 312.864 293.862 C 319.506 289.757, 324.214 283.667, 327.105 275.443 C 329.333 269.104, 329.589 254.615, 327.670 243.524 L 326.463 236.549 322.248 235.830 C 315.739 234.718, 311.372 232.208, 306.478 226.764 C 303.499 223.451, 301.463 219.960, 300.424 216.386 C 298.511 209.807, 297.564 209.440, 298.252 215.544 C 298.890 221.205, 297.435 221.033, 294.108 215.054 C 292.482 212.133, 291.558 208.552, 291.223 203.878 C 290.953 200.095, 290.679 196.997, 290.616 196.994 C 282.050 196.565, 271.827 192.405, 263.408 185.921 C 260.607 183.765, 258.084 182, 257.801 182 C 257.519 182, 255.206 183.590, 252.661 185.533 M 188.385 199.602 C 187.879 201.617, 188.176 202.656, 189.544 203.656 C 193.572 206.601, 199.453 204.254, 198.845 199.944 C 198.542 197.799, 197.923 197.463, 193.782 197.197 C 189.382 196.913, 189.019 197.075, 188.385 199.602 M 325 199.800 C 325 203.330, 326.643 205, 330.118 205 C 334.773 205, 336 204.039, 336 200.393 L 336 197 330.500 197 C 325.143 197, 325 197.073, 325 199.800 M 171.459 201.067 C 170.383 202.808, 171.608 203.177, 172.980 201.524 C 173.769 200.574, 173.845 200, 173.181 200 C 172.597 200, 171.821 200.480, 171.459 201.067 M 202.100 207.290 C 201.909 210.717, 197.898 217.091, 194.710 219.035 C 192.692 220.266, 189.699 220.994, 186.650 220.996 C 182.477 220.999, 181.361 220.543, 178.650 217.726 C 176.917 215.925, 174.993 213.563, 174.373 212.476 C 173.503 210.950, 173.440 211.747, 174.099 215.979 C 174.996 221.742, 176.939 225.119, 181.180 228.285 C 184.627 230.859, 193.375 230.838, 196.937 228.247 C 200.415 225.718, 204.022 218.357, 203.900 214.038 C 203.788 210.041, 202.264 204.332, 202.100 207.290 M 309.467 214.623 C 310.333 221.601, 312.375 225.441, 316.618 228.069 C 320.479 230.460, 328.619 230.656, 331.791 228.434 C 334.889 226.264, 337.932 219.917, 338.589 214.253 L 339.140 209.500 337.178 213.617 C 334.665 218.892, 331.595 221, 326.425 221 C 321.513 221, 316.596 218.014, 313.214 212.976 C 309.550 207.519, 308.636 207.921, 309.467 214.623 M 221.542 235.275 C 219.364 236.508, 216.214 239.464, 214.542 241.845 C 211.856 245.666, 211.500 246.990, 211.500 253.163 C 211.500 259.959, 211.604 260.249, 215.235 263.577 C 217.855 265.978, 219.923 267, 222.160 267 L 225.349 267 223.241 264.750 C 219.966 261.254, 218.777 257.052, 219.471 251.434 C 220.251 245.133, 222.971 240.540, 227.509 237.862 C 231.342 235.600, 231.823 234.530, 229.418 233.607 C 226.909 232.644, 225.755 232.888, 221.542 235.275 M 279.250 233.662 C 277.171 234.501, 277.830 235.687, 281.134 237.056 C 285.028 238.669, 289.700 245.816, 290.545 251.454 C 291.237 256.066, 289.149 262.584, 286.290 264.740 C 283.694 266.697, 285.615 267.432, 289.940 266.136 C 295.535 264.460, 298.002 260.929, 297.990 254.615 C 297.980 249.077, 294.699 240.756, 291.355 237.788 C 289.406 236.057, 282.723 232.933, 281.282 233.079 C 280.852 233.122, 279.938 233.385, 279.250 233.662 M 228.560 251.132 C 225.079 253.870, 225.660 256.557, 231.328 263.922 C 236.188 270.237, 241.758 274.548, 247.145 276.162 C 251.510 277.469, 251.546 277.584, 252.440 292.812 C 253.278 307.073, 250.458 310.540, 238.093 310.454 C 230.675 310.402, 224.853 307.999, 219.162 302.642 C 213.724 297.523, 211.663 292.527, 211.576 284.253 C 211.492 276.269, 210.511 275.263, 207.073 279.635 C 204.090 283.427, 204.269 291.140, 207.490 297.604 C 211.132 304.913, 228.983 322.169, 236.584 325.729 C 241.973 328.253, 243.524 328.500, 254 328.500 C 264.868 328.500, 265.872 328.324, 272.270 325.293 C 289.705 317.035, 305 299.917, 305 288.662 C 305 283.575, 302.358 277, 300.315 277 C 299.365 277, 299 278.785, 299 283.435 C 299 291.513, 298.107 293.839, 292.778 299.644 C 287.013 305.922, 280.288 308.978, 272.205 308.990 C 266.933 308.998, 265.529 308.620, 263.573 306.664 C 260.572 303.663, 257.929 294.553, 257.261 284.902 L 256.735 277.304 261.118 276.198 C 263.528 275.589, 266.910 274.049, 268.634 272.775 C 272.974 269.566, 284 257.254, 284 255.615 C 284 252.643, 279.915 249, 276.582 249 C 272.395 249, 270 251.638, 270 256.252 C 270 264.049, 259.183 270.473, 250.148 268.040 C 244.643 266.558, 239.800 261.864, 240.082 258.285 C 240.481 253.223, 240.029 252.066, 237.050 250.526 C 233.134 248.501, 231.782 248.597, 228.560 251.132 M 206.063 353.168 C 206.029 359.586, 205.741 365.661, 205.424 366.668 C 204.938 368.218, 205.046 368.192, 206.128 366.500 C 207.751 363.964, 208.506 347.318, 207.149 344 C 206.364 342.080, 206.112 344.209, 206.063 353.168 M 304.574 343.667 C 303.152 347.373, 302.832 356.875, 303.949 362.253 C 305.684 370.613, 306.699 370.028, 305.809 361.180 C 305.384 356.956, 305.311 350.913, 305.647 347.750 C 306.251 342.070, 305.818 340.425, 304.574 343.667 M 201.241 376.210 C 199.547 378.250, 196.267 387.150, 193.871 396.202 C 192.219 402.446, 191.689 407.223, 191.729 415.500 C 191.825 434.861, 196.967 448.817, 210.800 467.256 L 218.486 477.500 219.617 469.500 C 220.239 465.100, 220.812 461.275, 220.891 461 C 220.969 460.725, 222.592 463.650, 224.497 467.500 C 227.880 474.335, 237.745 488.753, 243.258 494.917 C 245.940 497.916, 246.254 498, 254.760 498 L 263.505 498 265.204 490.522 C 266.139 486.410, 269.828 476.785, 273.403 469.133 C 284.517 445.342, 285.936 437.870, 283.586 415.500 C 282.647 406.555, 282.211 406.964, 279.503 419.339 C 277.181 429.947, 274.280 436.753, 265.236 452.808 C 261.017 460.296, 256.133 470.231, 254.382 474.886 L 251.199 483.349 247.400 477.425 C 236.274 460.073, 229.808 444.159, 225.441 423.381 C 223.952 416.296, 222.516 409.488, 222.250 408.250 C 221.157 403.160, 220.239 406.788, 219.087 420.750 C 218.208 431.408, 218.160 437.442, 218.915 442.500 C 219.490 446.350, 219.951 450.175, 219.939 451 C 219.902 453.481, 213.153 445.058, 209.948 438.531 C 205.002 428.461, 203.664 419.724, 204.587 403.500 C 205.881 380.729, 205.758 375.586, 203.908 375.225 C 203.032 375.054, 201.832 375.497, 201.241 376.210 M 304.983 394.250 C 304.971 406.485, 304.477 414.807, 303.485 419.500 C 301.495 428.907, 295.118 441.890, 289.578 447.813 C 286.132 451.497, 285.330 452.930, 286.218 453.818 C 286.860 454.460, 287.580 459.093, 287.821 464.136 L 288.258 473.288 291.660 469.394 C 312.261 445.810, 317.440 434.160, 317.399 411.500 C 317.367 393.730, 312.330 376, 307.315 376 L 305 376 304.983 394.250" stroke="none" fill="black" fill-rule="evenodd"/>
</svg>